<svg width="22" height="22" viewBox="0 0 22 22" fill="none" xmlns="http://www.w3.org/2000/svg">
<path d="M12.9305 5.09016C13.185 5.21732 13.4655 5.28352 13.75 5.28352C14.0345 5.28352 14.315 5.21732 14.5695 5.09016L17.9236 3.41266C18.0634 3.34278 18.2189 3.30982 18.375 3.31693C18.5312 3.32405 18.683 3.37099 18.8159 3.4533C18.9488 3.53561 19.0585 3.65055 19.1345 3.7872C19.2105 3.92384 19.2502 4.07765 19.25 4.234V15.9343C19.2499 16.1045 19.2024 16.2713 19.1129 16.4161C19.0234 16.5608 18.8953 16.6778 18.7431 16.7538L14.5695 18.8411C14.315 18.9682 14.0345 19.0344 13.75 19.0344C13.4655 19.0344 13.185 18.9682 12.9305 18.8411L9.0695 16.9106C8.81504 16.7834 8.53447 16.7172 8.25 16.7172C7.96553 16.7172 7.68497 16.7834 7.4305 16.9106L4.07642 18.5881C3.93649 18.658 3.781 18.691 3.62474 18.6838C3.46848 18.6766 3.31665 18.6296 3.18369 18.5472C3.05074 18.4648 2.94109 18.3497 2.86518 18.2129C2.78927 18.0762 2.74962 17.9223 2.75 17.7658V6.06641C2.75009 5.89622 2.79756 5.72942 2.88709 5.58468C2.97662 5.43994 3.10468 5.32299 3.25692 5.24691L7.4305 3.15966C7.68497 3.03251 7.96553 2.96631 8.25 2.96631C8.53447 2.96631 8.81504 3.03251 9.0695 3.15966L12.9305 5.09016Z" stroke="black" stroke-width="2" stroke-linecap="round" stroke-linejoin="round"/>
<path d="M13.75 5.28369V19.0337" stroke="black" stroke-width="2" stroke-linecap="round" stroke-linejoin="round"/>
<path d="M8.25 2.96631V16.7163" stroke="black" stroke-width="2" stroke-linecap="round" stroke-linejoin="round"/>
</svg>
