<svg width="60" height="60" viewBox="0 0 60 60" fill="none" xmlns="http://www.w3.org/2000/svg">
<path d="M35 45V15C35 13.6739 34.4732 12.4021 33.5355 11.4645C32.5979 10.5268 31.3261 10 30 10H10C8.67392 10 7.40215 10.5268 6.46447 11.4645C5.52678 12.4021 5 13.6739 5 15V42.5C5 43.163 5.26339 43.7989 5.73223 44.2678C6.20107 44.7366 6.83696 45 7.5 45H12.5" stroke="white" stroke-width="2.5" stroke-linecap="round" stroke-linejoin="round"/>
<path d="M37.5 45H22.5" stroke="white" stroke-width="2.5" stroke-linecap="round" stroke-linejoin="round"/>
<path d="M47.5 45H52.5C53.163 45 53.7989 44.7366 54.2678 44.2678C54.7366 43.7989 55 43.163 55 42.5V33.375C54.999 32.8077 54.805 32.2575 54.45 31.815L45.75 20.94C45.5162 20.6472 45.2195 20.4107 44.882 20.248C44.5445 20.0853 44.1747 20.0005 43.8 20H35" stroke="white" stroke-width="2.5" stroke-linecap="round" stroke-linejoin="round"/>
<path d="M42.5 50C45.2614 50 47.5 47.7614 47.5 45C47.5 42.2386 45.2614 40 42.5 40C39.7386 40 37.5 42.2386 37.5 45C37.5 47.7614 39.7386 50 42.5 50Z" stroke="white" stroke-width="2.5" stroke-linecap="round" stroke-linejoin="round"/>
<path d="M17.5 50C20.2614 50 22.5 47.7614 22.5 45C22.5 42.2386 20.2614 40 17.5 40C14.7386 40 12.5 42.2386 12.5 45C12.5 47.7614 14.7386 50 17.5 50Z" stroke="white" stroke-width="2.5" stroke-linecap="round" stroke-linejoin="round"/>
</svg>
