<svg width="60" height="60" viewBox="0 0 60 60" fill="none" xmlns="http://www.w3.org/2000/svg">
<path d="M36.75 15.7504C36.2919 16.2178 36.0354 16.8461 36.0354 17.5004C36.0354 18.1548 36.2919 18.7831 36.75 19.2504L40.75 23.2504C41.2173 23.7085 41.8456 23.9651 42.5 23.9651C43.1544 23.9651 43.7827 23.7085 44.25 23.2504L52.015 15.4879C52.815 14.6829 54.1725 14.9379 54.4725 16.0329C55.2278 18.7801 55.1852 21.6856 54.3494 24.4094C53.5137 27.1332 51.9196 29.5627 49.7535 31.4135C47.5874 33.2644 44.939 34.46 42.1181 34.8606C39.2973 35.2612 36.4207 34.8501 33.825 33.6754L14.05 53.4504C13.0554 54.4447 11.7067 55.0031 10.3004 55.0029C8.89408 55.0026 7.54549 54.4437 6.55126 53.4492C5.55703 52.4546 4.99861 51.1058 4.99884 49.6996C4.99907 48.2933 5.55795 46.9447 6.55251 45.9504L26.3275 26.1754C25.1529 23.5797 24.7418 20.7031 25.1423 17.8823C25.5429 15.0615 26.7386 12.4131 28.5894 10.247C30.4403 8.08089 32.8697 6.48672 35.5935 5.651C38.3173 4.81529 41.2228 4.77261 43.97 5.52794C45.065 5.82794 45.32 7.18294 44.5175 7.98794L36.75 15.7504Z" stroke="white" stroke-width="2.5" stroke-linecap="round" stroke-linejoin="round"/>
</svg>
